<svg width="177" height="61" viewBox="0 0 177 61" fill="none" xmlns="http://www.w3.org/2000/svg">
<path d="M13.4961 34.8047C13.4961 34.2188 13.3398 33.6849 13.0273 33.2031C12.7279 32.7214 12.2266 32.2461 11.5234 31.7773C10.8333 31.3086 9.88932 30.8008 8.69141 30.2539C7.74089 29.8242 6.88802 29.4076 6.13281 29.0039C5.3776 28.6003 4.73958 28.1706 4.21875 27.7148C3.71094 27.2591 3.3138 26.7448 3.02734 26.1719C2.75391 25.5859 2.61719 24.8958 2.61719 24.1016C2.61719 23.3073 2.76693 22.5716 3.06641 21.8945C3.36589 21.2174 3.78906 20.625 4.33594 20.1172C4.89583 19.5964 5.5599 19.1927 6.32812 18.9062C7.10938 18.6198 7.98177 18.4766 8.94531 18.4766C10.3255 18.4766 11.5039 18.7435 12.4805 19.2773C13.457 19.7982 14.2122 20.5208 14.7461 21.4453C15.2799 22.3698 15.5469 23.4375 15.5469 24.6484H13.3594C13.3594 23.9193 13.1836 23.2422 12.832 22.6172C12.4935 21.9922 11.9987 21.4844 11.3477 21.0938C10.6966 20.7031 9.89583 20.5078 8.94531 20.5078C7.96875 20.5078 7.16797 20.6836 6.54297 21.0352C5.93099 21.3737 5.48177 21.8099 5.19531 22.3438C4.92188 22.8776 4.78516 23.4375 4.78516 24.0234C4.78516 24.4531 4.85026 24.8372 4.98047 25.1758C5.1237 25.5013 5.35807 25.8203 5.68359 26.1328C6.02214 26.4323 6.49089 26.7513 7.08984 27.0898C7.70182 27.4154 8.45703 27.806 9.35547 28.2617C10.6576 28.8216 11.7773 29.3815 12.7148 29.9414C13.6523 30.4883 14.375 31.1328 14.8828 31.875C15.3906 32.6042 15.6445 33.5286 15.6445 34.6484C15.6445 35.5208 15.4883 36.3151 15.1758 37.0312C14.8633 37.7344 14.4206 38.3398 13.8477 38.8477C13.2747 39.3424 12.5781 39.7266 11.7578 40C10.9505 40.2604 10.0521 40.3906 9.0625 40.3906C7.55208 40.3906 6.26953 40.1042 5.21484 39.5312C4.17318 38.9583 3.37891 38.2031 2.83203 37.2656C2.29818 36.3281 2.03125 35.3125 2.03125 34.2188H4.19922C4.2513 35.3255 4.52474 36.1784 5.01953 36.7773C5.52734 37.3763 6.14583 37.7865 6.875 38.0078C7.60417 38.2292 8.33333 38.3398 9.0625 38.3398C10.013 38.3398 10.8203 38.1836 11.4844 37.8711C12.1484 37.5586 12.6497 37.1354 12.9883 36.6016C13.3268 36.0547 13.4961 35.4557 13.4961 34.8047ZM20.7805 30.5273V28.3398C20.7805 26.7383 20.9628 25.3255 21.3273 24.1016C21.7049 22.8776 22.2323 21.849 22.9094 21.0156C23.5995 20.1693 24.4198 19.5378 25.3703 19.1211C26.3208 18.6914 27.3625 18.4766 28.4953 18.4766C29.6542 18.4766 30.7023 18.6914 31.6398 19.1211C32.5904 19.5378 33.4042 20.1693 34.0812 21.0156C34.7714 21.849 35.3052 22.8776 35.6828 24.1016C36.0604 25.3255 36.2492 26.7383 36.2492 28.3398V30.5273C36.2492 32.1289 36.0604 33.5482 35.6828 34.7852C35.3052 36.0091 34.7714 37.0378 34.0812 37.8711C33.4042 38.7044 32.5904 39.3359 31.6398 39.7656C30.7023 40.1953 29.6607 40.4102 28.5148 40.4102C27.369 40.4102 26.3208 40.1953 25.3703 39.7656C24.4328 39.3359 23.619 38.7044 22.9289 37.8711C22.2388 37.0247 21.7049 35.9896 21.3273 34.7656C20.9628 33.5417 20.7805 32.1289 20.7805 30.5273ZM22.968 28.3398V30.5273C22.968 31.7383 23.0852 32.8255 23.3195 33.7891C23.5669 34.7526 23.9315 35.5729 24.4133 36.25C24.8951 36.9271 25.4745 37.4479 26.1516 37.8125C26.8417 38.1771 27.6294 38.3594 28.5148 38.3594C29.4523 38.3594 30.2661 38.1771 30.9562 37.8125C31.6594 37.4479 32.2388 36.9271 32.6945 36.25C33.1633 35.5729 33.5083 34.7526 33.7297 33.7891C33.9641 32.8255 34.0812 31.7383 34.0812 30.5273V28.3398C34.0812 27.1549 33.9576 26.0807 33.7102 25.1172C33.4628 24.1536 33.0917 23.3333 32.5969 22.6562C32.1151 21.9661 31.5292 21.4388 30.8391 21.0742C30.149 20.6966 29.3677 20.5078 28.4953 20.5078C27.6359 20.5078 26.8612 20.6966 26.1711 21.0742C25.481 21.4388 24.8951 21.9661 24.4133 22.6562C23.9445 23.3333 23.5865 24.1536 23.3391 25.1172C23.0917 26.0807 22.968 27.1549 22.968 28.3398ZM52.6352 34.8047C52.6352 34.2188 52.4789 33.6849 52.1664 33.2031C51.8669 32.7214 51.3656 32.2461 50.6625 31.7773C49.9724 31.3086 49.0284 30.8008 47.8305 30.2539C46.8799 29.8242 46.0271 29.4076 45.2719 29.0039C44.5167 28.6003 43.8786 28.1706 43.3578 27.7148C42.85 27.2591 42.4529 26.7448 42.1664 26.1719C41.893 25.5859 41.7562 24.8958 41.7562 24.1016C41.7562 23.3073 41.906 22.5716 42.2055 21.8945C42.5049 21.2174 42.9281 20.625 43.475 20.1172C44.0349 19.5964 44.699 19.1927 45.4672 18.9062C46.2484 18.6198 47.1208 18.4766 48.0844 18.4766C49.4646 18.4766 50.643 18.7435 51.6195 19.2773C52.5961 19.7982 53.3513 20.5208 53.8852 21.4453C54.419 22.3698 54.6859 23.4375 54.6859 24.6484H52.4984C52.4984 23.9193 52.3227 23.2422 51.9711 22.6172C51.6326 21.9922 51.1378 21.4844 50.4867 21.0938C49.8357 20.7031 49.0349 20.5078 48.0844 20.5078C47.1078 20.5078 46.307 20.6836 45.682 21.0352C45.0701 21.3737 44.6208 21.8099 44.3344 22.3438C44.0609 22.8776 43.9242 23.4375 43.9242 24.0234C43.9242 24.4531 43.9893 24.8372 44.1195 25.1758C44.2628 25.5013 44.4971 25.8203 44.8227 26.1328C45.1612 26.4323 45.6299 26.7513 46.2289 27.0898C46.8409 27.4154 47.5961 27.806 48.4945 28.2617C49.7966 28.8216 50.9164 29.3815 51.8539 29.9414C52.7914 30.4883 53.5141 31.1328 54.0219 31.875C54.5297 32.6042 54.7836 33.5286 54.7836 34.6484C54.7836 35.5208 54.6273 36.3151 54.3148 37.0312C54.0023 37.7344 53.5596 38.3398 52.9867 38.8477C52.4138 39.3424 51.7172 39.7266 50.8969 40C50.0896 40.2604 49.1911 40.3906 48.2016 40.3906C46.6911 40.3906 45.4086 40.1042 44.3539 39.5312C43.3122 38.9583 42.518 38.2031 41.9711 37.2656C41.4372 36.3281 41.1703 35.3125 41.1703 34.2188H43.3383C43.3904 35.3255 43.6638 36.1784 44.1586 36.7773C44.6664 37.3763 45.2849 37.7865 46.0141 38.0078C46.7432 38.2292 47.4724 38.3398 48.2016 38.3398C49.1521 38.3398 49.9594 38.1836 50.6234 37.8711C51.2875 37.5586 51.7888 37.1354 52.1273 36.6016C52.4659 36.0547 52.6352 35.4557 52.6352 34.8047ZM63.1422 18.8672V40H60.9742V18.8672H63.1422ZM60.6422 12.793C60.6422 12.3242 60.7659 11.9401 61.0133 11.6406C61.2737 11.3281 61.6318 11.1719 62.0875 11.1719C62.5302 11.1719 62.8753 11.3281 63.1227 11.6406C63.3831 11.9401 63.5133 12.3242 63.5133 12.793C63.5133 13.2227 63.3831 13.5872 63.1227 13.8867C62.8753 14.1862 62.5302 14.3359 62.0875 14.3359C61.6318 14.3359 61.2737 14.1862 61.0133 13.8867C60.7659 13.5872 60.6422 13.2227 60.6422 12.793ZM80.7586 36.2109V24.707C80.7586 23.7174 80.5893 22.9167 80.2508 22.3047C79.9122 21.6797 79.4174 21.224 78.7664 20.9375C78.1154 20.651 77.3146 20.5078 76.3641 20.5078C75.4656 20.5078 74.6648 20.6901 73.9617 21.0547C73.2716 21.4062 72.7312 21.901 72.3406 22.5391C71.963 23.1641 71.7742 23.8867 71.7742 24.707L69.6062 24.6875C69.6062 23.8802 69.769 23.1055 70.0945 22.3633C70.42 21.6081 70.8823 20.944 71.4812 20.3711C72.0802 19.7852 72.7964 19.3229 73.6297 18.9844C74.476 18.6458 75.4135 18.4766 76.4422 18.4766C77.7052 18.4766 78.825 18.6784 79.8016 19.082C80.7781 19.4857 81.5398 20.1497 82.0867 21.0742C82.6466 21.9987 82.9266 23.2227 82.9266 24.7461V35.5469C82.9266 36.2891 82.9721 37.0508 83.0633 37.832C83.1674 38.6133 83.3042 39.2513 83.4734 39.7461V40H81.1687C81.0255 39.5443 80.9214 38.9648 80.8562 38.2617C80.7911 37.5456 80.7586 36.862 80.7586 36.2109ZM81.2078 27.6562L81.2664 29.5117H77.5164C76.5008 29.5117 75.6089 29.6224 74.8406 29.8438C74.0724 30.0651 73.4279 30.3841 72.907 30.8008C72.3992 31.2174 72.0151 31.7122 71.7547 32.2852C71.4943 32.8581 71.3641 33.5091 71.3641 34.2383C71.3641 35.1758 71.5138 35.944 71.8133 36.543C72.1128 37.1289 72.549 37.5651 73.1219 37.8516C73.7078 38.125 74.4044 38.2617 75.2117 38.2617C76.2794 38.2617 77.2169 38.0534 78.0242 37.6367C78.8445 37.207 79.5151 36.6406 80.0359 35.9375C80.5568 35.2214 80.8953 34.4661 81.0516 33.6719L81.6375 35C81.5073 35.599 81.2664 36.2109 80.9148 36.8359C80.5633 37.4609 80.1075 38.0469 79.5477 38.5938C78.9878 39.1276 78.3237 39.5638 77.5555 39.9023C76.7872 40.2409 75.9214 40.4102 74.9578 40.4102C73.799 40.4102 72.7833 40.1888 71.9109 39.7461C71.0516 39.3034 70.381 38.6328 69.8992 37.7344C69.4305 36.8359 69.1961 35.7292 69.1961 34.4141C69.1961 33.4375 69.3589 32.5391 69.6844 31.7188C70.0229 30.8984 70.5242 30.1888 71.1883 29.5898C71.8523 28.9779 72.6857 28.5026 73.6883 28.1641C74.6909 27.8255 75.8562 27.6562 77.1844 27.6562H81.2078Z" fill="white"/>
<path d="M103.883 49H100.403L113.631 12.6364H117.182L130.41 49H126.93L115.531 16.951H115.282L103.883 49ZM106.386 35.0618H124.426V38.0447H106.386V35.0618ZM136.642 49V12.6364H148.379C150.959 12.6364 153.113 13.1335 154.842 14.1278C156.582 15.1103 157.89 16.4479 158.766 18.1406C159.653 19.8333 160.097 21.7391 160.097 23.858C160.097 25.9768 159.659 27.8885 158.783 29.593C157.907 31.2857 156.605 32.6293 154.877 33.6236C153.149 34.6061 151 35.0973 148.432 35.0973H139.199V32.1143H148.343C150.249 32.1143 151.829 31.7592 153.084 31.049C154.339 30.3269 155.274 29.3445 155.889 28.1016C156.517 26.8587 156.83 25.4441 156.83 23.858C156.83 22.2718 156.517 20.8572 155.889 19.6143C155.274 18.3714 154.333 17.3949 153.066 16.6847C151.811 15.9744 150.219 15.6193 148.29 15.6193H139.962V49H136.642ZM171.212 12.6364V49H167.892V12.6364H171.212Z" fill="white"/>
<line x1="91" y1="48" x2="102" y2="48" stroke="white" stroke-width="2"/>
<line x1="91" y1="3" x2="91" y2="49" stroke="white" stroke-width="2"/>
</svg>
