<svg width="120" height="39" viewBox="0 0 120 39" fill="none" xmlns="http://www.w3.org/2000/svg">
<path d="M73.125 31H70.8977L79.3636 7.72727H81.6364L90.1023 31H87.875L80.5795 10.4886H80.4205L73.125 31ZM74.7273 22.0795H86.2727V23.9886H74.7273V22.0795ZM94.0909 31V7.72727H101.602C103.254 7.72727 104.633 8.04545 105.739 8.68182C106.852 9.31061 107.689 10.1667 108.25 11.25C108.818 12.3333 109.102 13.553 109.102 14.9091C109.102 16.2652 108.822 17.4886 108.261 18.5795C107.701 19.6629 106.867 20.5227 105.761 21.1591C104.655 21.7879 103.28 22.1023 101.636 22.1023H95.7273V20.1932H101.58C102.799 20.1932 103.811 19.9659 104.614 19.5114C105.417 19.0492 106.015 18.4205 106.409 17.625C106.811 16.8295 107.011 15.9242 107.011 14.9091C107.011 13.8939 106.811 12.9886 106.409 12.1932C106.015 11.3977 105.413 10.7727 104.602 10.3182C103.799 9.86364 102.78 9.63636 101.545 9.63636H96.2159V31H94.0909ZM116.216 7.72727V31H114.091V7.72727H116.216Z" fill="black"/>
<line x1="60" y1="30.4" x2="72" y2="30.4" stroke="black" stroke-width="1.2"/>
<line x1="60.75" y1="3" x2="60.75" y2="31" stroke="black" stroke-width="1.5"/>
<path d="M8.77246 20.623C8.77246 20.2422 8.6709 19.8952 8.46777 19.582C8.27311 19.2689 7.94727 18.96 7.49023 18.6553C7.04167 18.3506 6.42806 18.0205 5.64941 17.665C5.03158 17.3857 4.47721 17.1149 3.98633 16.8525C3.49544 16.5902 3.08073 16.3109 2.74219 16.0146C2.41211 15.7184 2.15397 15.3841 1.96777 15.0117C1.79004 14.6309 1.70117 14.1823 1.70117 13.666C1.70117 13.1497 1.7985 12.6715 1.99316 12.2314C2.18783 11.7913 2.46289 11.4062 2.81836 11.0762C3.18229 10.7376 3.61393 10.4753 4.11328 10.2891C4.62109 10.1029 5.18815 10.0098 5.81445 10.0098C6.71159 10.0098 7.47754 10.1833 8.1123 10.5303C8.74707 10.8688 9.23796 11.3385 9.58496 11.9395C9.93197 12.5404 10.1055 13.2344 10.1055 14.0215H8.68359C8.68359 13.5475 8.56934 13.1074 8.34082 12.7012C8.12077 12.2949 7.79915 11.9648 7.37598 11.7109C6.9528 11.457 6.43229 11.3301 5.81445 11.3301C5.17969 11.3301 4.65918 11.4443 4.25293 11.6729C3.85514 11.8929 3.56315 12.1764 3.37695 12.5234C3.19922 12.8704 3.11035 13.2344 3.11035 13.6152C3.11035 13.8945 3.15267 14.1442 3.2373 14.3643C3.3304 14.5758 3.48275 14.7832 3.69434 14.9863C3.91439 15.181 4.21908 15.3883 4.6084 15.6084C5.00618 15.82 5.49707 16.0739 6.08105 16.3701C6.92741 16.734 7.65527 17.098 8.26465 17.4619C8.87402 17.8174 9.34375 18.2363 9.67383 18.7188C10.0039 19.1927 10.1689 19.7936 10.1689 20.5215C10.1689 21.0885 10.0674 21.6048 9.86426 22.0703C9.66113 22.5273 9.37337 22.9209 9.00098 23.251C8.62858 23.5726 8.17578 23.8223 7.64258 24C7.11784 24.1693 6.53385 24.2539 5.89062 24.2539C4.90885 24.2539 4.0752 24.0677 3.38965 23.6953C2.71257 23.3229 2.19629 22.832 1.84082 22.2227C1.49382 21.6133 1.32031 20.9531 1.32031 20.2422H2.72949C2.76335 20.9616 2.94108 21.516 3.2627 21.9053C3.59277 22.2946 3.99479 22.5612 4.46875 22.7051C4.94271 22.849 5.41667 22.9209 5.89062 22.9209C6.50846 22.9209 7.0332 22.8193 7.46484 22.6162C7.89648 22.4131 8.22233 22.138 8.44238 21.791C8.66243 21.4355 8.77246 21.0462 8.77246 20.623ZM13.5073 17.8428V16.4209C13.5073 15.3799 13.6258 14.4616 13.8628 13.666C14.1082 12.8704 14.451 12.2018 14.8911 11.6602C15.3397 11.11 15.8729 10.6995 16.4907 10.4287C17.1085 10.1494 17.7856 10.0098 18.522 10.0098C19.2752 10.0098 19.9565 10.1494 20.5659 10.4287C21.1837 10.6995 21.7127 11.11 22.1528 11.6602C22.6014 12.2018 22.9484 12.8704 23.1938 13.666C23.4393 14.4616 23.562 15.3799 23.562 16.4209V17.8428C23.562 18.8838 23.4393 19.8063 23.1938 20.6104C22.9484 21.4059 22.6014 22.0745 22.1528 22.6162C21.7127 23.1579 21.1837 23.5684 20.5659 23.8477C19.9565 24.127 19.2794 24.2666 18.5346 24.2666C17.7899 24.2666 17.1085 24.127 16.4907 23.8477C15.8813 23.5684 15.3524 23.1579 14.9038 22.6162C14.4552 22.0661 14.1082 21.3932 13.8628 20.5977C13.6258 19.8021 13.5073 18.8838 13.5073 17.8428ZM14.9292 16.4209V17.8428C14.9292 18.6299 15.0054 19.3366 15.1577 19.9629C15.3185 20.5892 15.5555 21.1224 15.8686 21.5625C16.1818 22.0026 16.5584 22.3411 16.9985 22.5781C17.4471 22.8151 17.9591 22.9336 18.5346 22.9336C19.144 22.9336 19.673 22.8151 20.1216 22.5781C20.5786 22.3411 20.9552 22.0026 21.2514 21.5625C21.5561 21.1224 21.7804 20.5892 21.9243 19.9629C22.0766 19.3366 22.1528 18.6299 22.1528 17.8428V16.4209C22.1528 15.6507 22.0724 14.9525 21.9116 14.3262C21.7508 13.6999 21.5096 13.1667 21.188 12.7266C20.8748 12.278 20.494 11.9352 20.0454 11.6982C19.5968 11.4528 19.089 11.3301 18.522 11.3301C17.9634 11.3301 17.4598 11.4528 17.0112 11.6982C16.5626 11.9352 16.1818 12.278 15.8686 12.7266C15.5639 13.1667 15.3312 13.6999 15.1704 14.3262C15.0096 14.9525 14.9292 15.6507 14.9292 16.4209ZM34.2129 20.623C34.2129 20.2422 34.1113 19.8952 33.9082 19.582C33.7135 19.2689 33.3877 18.96 32.9306 18.6553C32.4821 18.3506 31.8685 18.0205 31.0898 17.665C30.472 17.3857 29.9176 17.1149 29.4267 16.8525C28.9358 16.5902 28.5211 16.3109 28.1826 16.0146C27.8525 15.7184 27.5944 15.3841 27.4082 15.0117C27.2304 14.6309 27.1416 14.1823 27.1416 13.666C27.1416 13.1497 27.2389 12.6715 27.4336 12.2314C27.6282 11.7913 27.9033 11.4062 28.2588 11.0762C28.6227 10.7376 29.0543 10.4753 29.5537 10.2891C30.0615 10.1029 30.6285 10.0098 31.2548 10.0098C32.152 10.0098 32.9179 10.1833 33.5527 10.5303C34.1875 10.8688 34.6783 11.3385 35.0254 11.9395C35.3724 12.5404 35.5459 13.2344 35.5459 14.0215H34.124C34.124 13.5475 34.0097 13.1074 33.7812 12.7012C33.5612 12.2949 33.2395 11.9648 32.8164 11.7109C32.3932 11.457 31.8727 11.3301 31.2548 11.3301C30.6201 11.3301 30.0996 11.4443 29.6933 11.6729C29.2955 11.8929 29.0035 12.1764 28.8173 12.5234C28.6396 12.8704 28.5507 13.2344 28.5507 13.6152C28.5507 13.8945 28.5931 14.1442 28.6777 14.3643C28.7708 14.5758 28.9231 14.7832 29.1347 14.9863C29.3548 15.181 29.6595 15.3883 30.0488 15.6084C30.4466 15.82 30.9375 16.0739 31.5214 16.3701C32.3678 16.734 33.0957 17.098 33.705 17.4619C34.3144 17.8174 34.7841 18.2363 35.1142 18.7188C35.4443 19.1927 35.6093 19.7936 35.6093 20.5215C35.6093 21.0885 35.5078 21.6048 35.3046 22.0703C35.1015 22.5273 34.8138 22.9209 34.4414 23.251C34.069 23.5726 33.6162 23.8223 33.083 24C32.5582 24.1693 31.9742 24.2539 31.331 24.2539C30.3492 24.2539 29.5156 24.0677 28.83 23.6953C28.153 23.3229 27.6367 22.832 27.2812 22.2227C26.9342 21.6133 26.7607 20.9531 26.7607 20.2422H28.1699C28.2037 20.9616 28.3815 21.516 28.7031 21.9053C29.0332 22.2946 29.4352 22.5612 29.9091 22.7051C30.3831 22.849 30.8571 22.9209 31.331 22.9209C31.9489 22.9209 32.4736 22.8193 32.9052 22.6162C33.3369 22.4131 33.6627 22.138 33.8828 21.791C34.1028 21.4355 34.2129 21.0462 34.2129 20.623ZM41.0424 10.2637V24H39.6332V10.2637H41.0424ZM39.4174 6.31543C39.4174 6.01074 39.4978 5.76107 39.6586 5.56641C39.8279 5.36328 40.0607 5.26172 40.3569 5.26172C40.6446 5.26172 40.8689 5.36328 41.0297 5.56641C41.199 5.76107 41.2836 6.01074 41.2836 6.31543C41.2836 6.59473 41.199 6.83171 41.0297 7.02637C40.8689 7.22103 40.6446 7.31836 40.3569 7.31836C40.0607 7.31836 39.8279 7.22103 39.6586 7.02637C39.4978 6.83171 39.4174 6.59473 39.4174 6.31543ZM52.4931 21.5371V14.0596C52.4931 13.4163 52.3831 12.8958 52.163 12.498C51.943 12.0918 51.6213 11.7956 51.1982 11.6094C50.775 11.4232 50.2545 11.3301 49.6366 11.3301C49.0527 11.3301 48.5322 11.4486 48.0751 11.6855C47.6266 11.9141 47.2753 12.2357 47.0214 12.6504C46.776 13.0566 46.6532 13.5264 46.6532 14.0596L45.2441 14.0469C45.2441 13.5221 45.3499 13.0186 45.5614 12.5361C45.773 12.0452 46.0735 11.6136 46.4628 11.2412C46.8521 10.8604 47.3176 10.5599 47.8593 10.3398C48.4094 10.1198 49.0188 10.0098 49.6874 10.0098C50.5084 10.0098 51.2363 10.141 51.871 10.4033C52.5058 10.6657 53.0009 11.0973 53.3564 11.6982C53.7203 12.2992 53.9023 13.0947 53.9023 14.085V21.1055C53.9023 21.5879 53.9319 22.083 53.9911 22.5908C54.0588 23.0986 54.1477 23.5133 54.2577 23.835V24H52.7597C52.6666 23.7038 52.5989 23.3271 52.5566 22.8701C52.5142 22.4046 52.4931 21.9603 52.4931 21.5371ZM52.7851 15.9766L52.8232 17.1826H50.3857C49.7255 17.1826 49.1458 17.2546 48.6464 17.3984C48.1471 17.5423 47.7281 17.7497 47.3896 18.0205C47.0595 18.2913 46.8098 18.613 46.6405 18.9854C46.4713 19.3577 46.3866 19.7809 46.3866 20.2549C46.3866 20.8643 46.484 21.3636 46.6786 21.7529C46.8733 22.1338 47.1568 22.4173 47.5292 22.6035C47.9101 22.7812 48.3629 22.8701 48.8876 22.8701C49.5816 22.8701 50.191 22.7347 50.7157 22.4639C51.2489 22.1846 51.6848 21.8164 52.0234 21.3594C52.3619 20.8939 52.582 20.403 52.6835 19.8867L53.0644 20.75C52.9797 21.1393 52.8232 21.5371 52.5947 21.9434C52.3661 22.3496 52.0699 22.7305 51.706 23.0859C51.342 23.4329 50.9104 23.7165 50.4111 23.9365C49.9117 24.1566 49.3489 24.2666 48.7226 24.2666C47.9693 24.2666 47.3092 24.1227 46.7421 23.835C46.1835 23.5472 45.7476 23.1113 45.4345 22.5273C45.1298 21.9434 44.9775 21.224 44.9775 20.3691C44.9775 19.7344 45.0833 19.1504 45.2948 18.6172C45.5149 18.084 45.8407 17.6227 46.2724 17.2334C46.704 16.8356 47.2457 16.5267 47.8974 16.3066C48.5491 16.0866 49.3066 15.9766 50.1698 15.9766H52.7851Z" fill="black"/>
</svg>
